<?xml version="1.0" encoding="UTF-8"?>
<svg width="1200pt" height="1200pt" version="1.1" viewBox="0 0 1200 1200" xmlns="http://www.w3.org/2000/svg">
 <path d="m228 492v324c0 38.191 15.172 74.816 42.176 101.82 27.008 27.004 63.633 42.176 101.82 42.176h456c38.191 0 74.816-15.172 101.82-42.176 27.004-27.008 42.176-63.633 42.176-101.82v-432c0-38.191-15.172-74.816-42.176-101.82-27.008-27.004-63.633-42.176-101.82-42.176h-456c-38.191 0-74.816 15.172-101.82 42.176-27.004 27.008-42.176 63.633-42.176 101.82zm648 324c0 12.73-5.0586 24.938-14.059 33.941-9.0039 9-21.211 14.059-33.941 14.059h-456c-12.73 0-24.938-5.0586-33.941-14.059-9-9.0039-14.059-21.211-14.059-33.941v-246.36l186.36 93.238c27.84 13.895 58.527 21.125 89.641 21.125s61.801-7.2305 89.641-21.125l186.36-93.238zm-504-480h456c12.73 0 24.938 5.0586 33.941 14.059 9 9.0039 14.059 21.211 14.059 33.941v78.359l-229.32 114.6c-29.457 14.395-63.902 14.395-93.359 0l-229.32-114.6v-78.359c0-12.73 5.0586-24.938 14.059-33.941 9.0039-9 21.211-14.059 33.941-14.059z" fill="#333"/>
</svg>
