<?xml version="1.0" encoding="UTF-8"?>
<svg width="1200pt" height="1200pt" version="1.1" viewBox="0 0 1200 1200" xmlns="http://www.w3.org/2000/svg">
 <g fill="#333">
  <path d="m876 451.68v-187.68c0-17.148-9.1484-32.996-24-41.57-14.852-8.5742-33.148-8.5742-48 0-14.852 8.5742-24 24.422-24 41.57v187.68c-42.004 13.691-76.23 44.551-94.188 84.914s-17.957 86.449 0 126.81 52.184 71.223 94.188 84.914v187.68c0 17.148 9.1484 32.996 24 41.57 14.852 8.5742 33.148 8.5742 48 0 14.852-8.5742 24-24.422 24-41.57v-187.68c42.004-13.691 76.23-44.551 94.188-84.914s17.957-86.449 0-126.81-52.184-71.223-94.188-84.914zm-48 208.32c-15.914 0-31.176-6.3203-42.426-17.574-11.254-11.25-17.574-26.512-17.574-42.426s6.3203-31.176 17.574-42.426c11.25-11.254 26.512-17.574 42.426-17.574s31.176 6.3203 42.426 17.574c11.254 11.25 17.574 26.512 17.574 42.426s-6.3203 31.176-17.574 42.426c-11.25 11.254-26.512 17.574-42.426 17.574z"/>
  <path d="m264 312h228c6.3633 0 12.469 2.5273 16.969 7.0312 4.5039 4.5 7.0312 10.605 7.0312 16.969v96c0 6.3633-2.5273 12.469-7.0312 16.969-4.5 4.5039-10.605 7.0312-16.969 7.0312h-228c-17.148 0-32.996 9.1484-41.57 24-8.5742 14.852-8.5742 33.148 0 48 8.5742 14.852 24.422 24 41.57 24h228c31.824 0 62.348-12.645 84.852-35.148 22.504-22.504 35.148-53.027 35.148-84.852v-96c0-31.824-12.645-62.348-35.148-84.852-22.504-22.504-53.027-35.148-84.852-35.148h-228c-17.148 0-32.996 9.1484-41.57 24-8.5742 14.852-8.5742 33.148 0 48 8.5742 14.852 24.422 24 41.57 24z"/>
  <path d="m492 888h-228c-17.148 0-32.996 9.1484-41.57 24-8.5742 14.852-8.5742 33.148 0 48 8.5742 14.852 24.422 24 41.57 24h228c31.824 0 62.348-12.645 84.852-35.148 22.504-22.504 35.148-53.027 35.148-84.852v-96c0-31.824-12.645-62.348-35.148-84.852-22.504-22.504-53.027-35.148-84.852-35.148h-228c-17.148 0-32.996 9.1484-41.57 24-8.5742 14.852-8.5742 33.148 0 48 8.5742 14.852 24.422 24 41.57 24h228c6.3633 0 12.469 2.5273 16.969 7.0312 4.5039 4.5 7.0312 10.605 7.0312 16.969v96c0 6.3633-2.5273 12.469-7.0312 16.969-4.5 4.5039-10.605 7.0312-16.969 7.0312z"/>
 </g>
</svg>
