<?xml version="1.0" encoding="UTF-8"?>
<svg width="1200pt" height="1200pt" version="1.1" viewBox="0 0 1200 1200" xmlns="http://www.w3.org/2000/svg">
 <path d="m984 516c0.011719-37.809-13.707-74.332-38.605-102.79-24.895-28.449-59.281-46.895-96.754-51.895-6.8555-35.023-23.965-67.215-49.156-92.492s-57.324-42.496-92.324-49.469c-11.586-2.25-23.359-3.3789-35.16-3.3594-41.742-0.03125-82.199 14.449-114.45 40.957-32.242 26.508-54.273 63.402-62.316 104.36-33.938 4.5469-65.438 20.137-89.641 44.359-24.199 24.223-39.762 55.738-44.277 89.68-40.953 8.0273-77.844 30.031-104.36 62.254-26.52 32.219-41.02 72.656-41.02 114.39s14.5 82.168 41.02 114.39c26.52 32.223 63.41 54.227 104.36 62.254 5 37.473 23.445 71.859 51.895 96.754 28.453 24.898 64.977 38.617 102.79 38.605h312c41.375 0 81.055-16.438 110.31-45.691s45.691-68.934 45.691-110.31zm-96 312c0 15.914-6.3203 31.176-17.574 42.426-11.25 11.254-26.512 17.574-42.426 17.574h-312c-15.914 0-31.176-6.3203-42.426-17.574-11.254-11.25-17.574-26.512-17.574-42.426v-70.559c0-7.3789-5.9453-13.375-13.32-13.441-2.2344-0.042969-4.4375 0.53906-6.3594 1.6797-21.5 11.863-47.113 13.719-70.102 5.0898-22.988-8.6328-41.051-26.891-49.43-49.973-8.3828-23.082-6.2422-48.672 5.8516-70.043 12.098-21.371 32.938-36.379 57.039-41.074 5.375-1.082 10.84-1.6445 16.32-1.6797 14.133-0.015625 28.043 3.5312 40.441 10.32 1.8867 1.1211 4.043 1.6992 6.2383 1.6797 7.375-0.066406 13.32-6.0625 13.32-13.441v-70.559c0-15.914 6.3203-31.176 17.574-42.426 11.25-11.254 26.512-17.574 42.426-17.574h70.559c4.75 0.10547 9.1992-2.3242 11.672-6.3828 2.4727-4.0547 2.5977-9.125 0.32812-13.297-14.219-25.988-13.699-57.539 1.3672-83.043 15.066-25.504 42.453-41.188 72.074-41.277 5.6445-0.03125 11.273 0.53516 16.801 1.6797 26.145 5.3555 48.191 22.816 59.395 47.039 11.199 24.227 10.223 52.332-2.6367 75.723-2.207 4.1641-2.0508 9.1875 0.41406 13.207 2.4648 4.0195 6.8711 6.4336 11.586 6.3516h70.441c15.914 0 31.176 6.3203 42.426 17.574 11.254 11.25 17.574 26.512 17.574 42.426z" fill="#333"/>
</svg>
