<?xml version="1.0" encoding="UTF-8"?>
<svg width="1200pt" height="1200pt" version="1.1" viewBox="0 0 1200 1200" xmlns="http://www.w3.org/2000/svg">
 <g fill="#333">
  <path d="m861.84 645.96 82.68-81.961c25.281-25.312 39.48-59.625 39.48-95.398 0-35.777-14.199-70.09-39.48-95.402l-82.68-82.559c-10.242-10.273-24.578-15.363-39.004-13.848-14.426 1.5156-27.391 9.4727-35.277 21.648-5.9375 9.4648-8.4492 20.68-7.1172 31.773 1.332 11.094 6.4297 21.395 14.438 29.184l81.719 81.84h0.003906c7.2969 7.2344 11.402 17.086 11.402 27.363 0 10.273-4.1055 20.125-11.402 27.359l-80.762 80.039c-8.4102 8.0273-13.754 18.734-15.113 30.281-1.3555 11.543 1.3555 23.199 7.6719 32.957 8.0859 11.73 20.961 19.262 35.148 20.559 14.184 1.3008 28.215-3.7695 38.293-13.836z"/>
  <path d="m338.16 909.96c10.242 10.27 24.578 15.359 39.004 13.844 14.426-1.5117 27.391-9.4688 35.277-21.645 5.9375-9.4648 8.4492-20.68 7.1172-31.773-1.332-11.094-6.4297-21.395-14.438-29.188l-81.121-81.84c-7.3008-7.2344-11.406-17.082-11.406-27.359s4.1055-20.125 11.406-27.359l80.16-80.641c8.4102-8.0273 13.754-18.734 15.113-30.281 1.3555-11.543-1.3555-23.199-7.6719-32.957-8.1055-11.715-20.992-19.223-35.176-20.496-14.184-1.2734-28.203 3.8164-38.266 13.895l-82.68 82.559c-25.281 25.312-39.48 59.625-39.48 95.402 0 35.773 14.199 70.086 39.48 95.398z"/>
  <path d="m778.92 930.24c11.211-6.0664 19.551-16.348 23.176-28.57 3.625-12.223 2.2383-25.387-3.8594-36.59l-312-576c-5.457-12.23-15.777-21.629-28.469-25.914-12.691-4.2891-26.598-3.0781-38.359 3.3398-11.758 6.418-20.301 17.457-23.562 30.449-3.2578 12.992-0.94141 26.758 6.3906 37.969l312 576c6.0703 11.211 16.348 19.551 28.574 23.176 12.223 3.625 25.387 2.2383 36.586-3.8594z"/>
 </g>
</svg>
