<?xml version="1.0" encoding="UTF-8"?>
<svg width="1200pt" height="1200pt" version="1.1" viewBox="0 0 1200 1200" xmlns="http://www.w3.org/2000/svg">
 <path d="m960 456c0.050781-21.809-5.8438-43.223-17.051-61.934-11.203-18.711-27.297-34.016-46.551-44.266l-205.92-111c-27.809-14.969-58.898-22.801-90.48-22.801s-62.672 7.832-90.48 22.801l-205.92 110.4c-29.652 15.402-51.535 42.469-60.391 74.684-8.8555 32.215-3.8789 66.664 13.73 95.059 17.613 28.395 46.262 48.156 79.059 54.539v141.96c-20.094 12.512-36.301 30.383-46.801 51.598l-39.121 78c-14.895 29.77-13.305 65.133 4.1992 93.449 17.508 28.312 48.434 45.535 81.723 45.512h528c33.289 0.023438 64.215-17.199 81.723-45.512 17.504-28.316 19.094-63.68 4.1992-93.449l-39.121-78c-10.5-21.215-26.707-39.086-46.801-51.598v-141.96c27.012-5.6719 51.27-20.422 68.734-41.797s27.086-48.082 27.266-75.684zm-611.04-21.602 205.92-110.4c28.164-15.191 62.078-15.191 90.242 0l205.92 110.4h-0.003907c6.6367 3.207 11.43 9.2852 13 16.484 1.5742 7.1992-0.24609 14.723-4.9375 20.406-4.6914 5.6797-11.734 8.8945-19.102 8.7109h-479.4c-7.8867 1.1797-15.844-1.6328-21.238-7.5078-5.3906-5.875-7.5117-14.043-5.6602-21.801 1.8516-7.7539 7.4336-14.086 14.898-16.891zm299.04 261.6v-120h120v120zm-96-120v120h-120v-120zm-216 312 39-78c2.6953-5.3984 6.8359-9.9414 11.965-13.121 5.1289-3.1797 11.043-4.8672 17.074-4.8789h391.92c6.0312 0.011719 11.945 1.6992 17.074 4.8789 5.1289 3.1797 9.2695 7.7227 11.965 13.121l39 78z" fill="#333"/>
</svg>
