<?xml version="1.0" encoding="UTF-8"?>
<svg width="1200pt" height="1200pt" version="1.1" viewBox="0 0 1200 1200" xmlns="http://www.w3.org/2000/svg">
 <g fill="#333">
  <path d="m600 216c-101.84 0-199.52 40.457-271.53 112.47-72.016 72.012-112.47 169.68-112.47 271.53s40.457 199.52 112.47 271.53c72.012 72.016 169.68 112.47 271.53 112.47s199.52-40.457 271.53-112.47c72.016-72.012 112.47-169.68 112.47-271.53 0-67.406-17.742-133.62-51.445-192-33.703-58.375-82.18-106.85-140.55-140.55-58.375-33.703-124.59-51.445-192-51.445zm0 672c-76.383 0-149.64-30.344-203.65-84.352-54.008-54.012-84.352-127.27-84.352-203.65s30.344-149.64 84.352-203.65c54.012-54.008 127.27-84.352 203.65-84.352s149.64 30.344 203.65 84.352c54.008 54.012 84.352 127.27 84.352 203.65s-30.344 149.64-84.352 203.65c-54.012 54.008-127.27 84.352-203.65 84.352z"/>
  <path d="m653.16 433.92-120 24c-18.562 3.7227-35.609 12.852-49 26.238-13.387 13.391-22.516 30.438-26.238 49l-24 120c-1.293 6.1953-1.9375 12.512-1.9219 18.84 0.015625 28.754 12.918 55.988 35.164 74.207 22.242 18.223 51.48 25.516 79.676 19.871l120-24c18.586-3.7031 35.66-12.82 49.07-26.211 13.41-13.391 22.559-30.449 26.289-49.027l24-120c1.1953-6.2109 1.7969-12.516 1.8008-18.84-0.015625-28.754-12.918-55.988-35.164-74.207-22.242-18.223-51.48-25.516-79.676-19.871zm-5.1602 214.08-120 24 24-120 120-24z"/>
 </g>
</svg>
