<?xml version="1.0" encoding="UTF-8"?>
<svg width="1200pt" height="1200pt" version="1.1" viewBox="0 0 1200 1200" xmlns="http://www.w3.org/2000/svg">
 <path d="m955.8 602.76c16.832-16.785 26.84-39.219 28.082-62.957 1.2461-23.738-6.3633-47.094-21.348-65.547-14.988-18.449-36.285-30.688-59.773-34.336l-149.04-23.043-67.918-135.84c-7.9727-15.93-20.219-29.328-35.375-38.695-15.152-9.3672-32.613-14.336-50.426-14.344h-3c-17.32 0.53516-34.176 5.7461-48.773 15.082-14.602 9.3398-26.398 22.457-34.148 37.957l-67.797 135.72-149.04 23.16c-23.488 3.6484-44.785 15.887-59.773 34.336-14.984 18.453-22.594 41.809-21.348 65.547 1.2422 23.738 11.25 46.172 28.082 62.957l107.04 106.92v-0.003906c0.15625 0.34375 0.15625 0.73828 0 1.082l-24 149.88c-3.8086 23.531 1.2773 47.641 14.262 67.633 12.988 19.992 32.949 34.438 56 40.523 23.047 6.0859 47.535 3.3789 68.699-7.5977l133.8-69.598 133.56 69.602v-0.003906c21.164 10.977 45.652 13.684 68.703 7.5977s43.012-20.531 55.996-40.523c12.988-19.992 18.07-44.102 14.262-67.633l-24-149.88c-0.14062-0.34766-0.14062-0.73438 0-1.082zm-174.84 39c-21.992 22.031-32.117 53.254-27.242 84l24 150-133.8-69.363c-27.566-14.18-60.277-14.18-87.844 0l-134.04 69.602 24-150c4.8789-30.746-5.2461-61.969-27.238-84l-106.8-107.16 149.04-23.16c30.695-4.8047 57.164-24.164 71.039-51.961l67.922-135.72 67.922 135.72c13.875 27.797 40.344 47.156 71.039 51.961l149.04 23.16z" fill="#333"/>
</svg>
