<?xml version="1.0" encoding="UTF-8"?>
<svg width="1200pt" height="1200pt" version="1.1" viewBox="0 0 1200 1200" xmlns="http://www.w3.org/2000/svg">
 <path d="m731.28 252h-12c-42.863 1.418-84.453 14.895-120 38.879-35.789-23.953-77.562-37.418-120.6-38.879h-9.7188c-65.762 0.03125-128.93 25.645-176.14 71.422-47.211 45.777-74.758 108.13-76.816 173.86-3.3594 152.64 105.24 311.28 290.28 424.2 28.207 17.285 60.637 26.461 93.719 26.52 32.262 0.089844 63.93-8.668 91.559-25.32 183.36-111.24 292.44-267.96 292.44-418.68-0.19141-66.902-26.902-131-74.273-178.23-47.375-47.238-111.55-73.766-178.45-73.766zm-89.52 588.6c-12.609 7.5625-27.059 11.508-41.762 11.398-15.344 0.054688-30.41-4.0977-43.559-12-165.12-101.28-246.72-231.72-244.44-340.56 1.8398-40.504 19.117-78.77 48.285-106.93 29.168-28.164 68.012-44.09 108.55-44.508h6c38.578 0.41406 74.965 18.016 99.238 48 6.3828 7.7383 15.891 12.219 25.922 12.219s19.539-4.4805 25.922-12.219c23.984-29.691 59.875-47.262 98.039-48h7.3203c41.371 0.21875 81 16.703 110.32 45.891 29.324 29.188 45.988 68.738 46.398 110.11 0 108-82.078 237-246.24 336.6z" fill="#333"/>
</svg>
